<svg width="92" height="30" viewBox="0 0 92 30" fill="none" xmlns="http://www.w3.org/2000/svg">
<path d="M3.55 18.1C5.81 18.1 6.69 17.08 6.69 15.93C6.69 15.07 6.25 14.23 4.61 13.99L2.51 13.68C2.15 13.63 2.03 13.53 2.03 13.32C2.03 13.03 2.24 12.9 3.2 12.9C4.46 12.9 4.67 13.06 4.67 13.54V13.69H6.55V13.63C6.55 12.13 5.53 11.2 3.4 11.2C0.98 11.2 0.15 12.32 0.15 13.39C0.15 14.47 0.78 15.14 2.03 15.31L4.13 15.59C4.68 15.66 4.81 15.76 4.81 16C4.81 16.3 4.69 16.39 3.55 16.39C2.29 16.39 2.13 16.27 2.13 15.82V15.61H0.25V15.67C0.25 17.37 1.5 18.1 3.55 18.1ZM14.0159 18V16.31H15.8459C17.4359 16.31 18.4359 15.39 18.4359 13.8C18.4359 12.21 17.4359 11.3 15.8459 11.3H12.1359V18H14.0159ZM15.6359 12.99C16.2959 12.99 16.5659 13.12 16.5659 13.8C16.5659 14.49 16.2959 14.62 15.6359 14.62H14.0159V12.99H15.6359ZM27.4452 18.1C29.8352 18.1 31.1952 16.74 31.1952 14.65C31.1952 12.56 29.8352 11.2 27.4452 11.2C25.1152 11.2 23.7352 12.56 23.7352 14.65C23.7352 16.74 25.1152 18.1 27.4452 18.1ZM27.4452 16.3C26.0852 16.3 25.7352 15.98 25.7352 14.65C25.7352 13.32 26.0852 13 27.4452 13C28.8052 13 29.1952 13.32 29.1952 14.65C29.1952 15.98 28.8052 16.3 27.4452 16.3ZM40.7965 18V12.99H43.1565V11.3H36.5465V12.99H38.9165V18H40.7965ZM52.7105 18V12.99H55.0705V11.3H48.4605V12.99H50.8305V18H52.7105ZM62.2346 18L62.7546 16.76H65.9346L66.4446 18H68.6046L65.7046 11.3H63.0146L60.1246 18H62.2346ZM63.8546 14.13L64.2846 13H64.4146L64.8546 14.13L65.2446 15.07H63.4646L63.8546 14.13Z" fill="#101012"/>
<rect x="73" y="8.5" width="19" height="13" rx="2" fill="#5378F6"/>
<path d="M78.33 17.5V15.239L78.288 14.378H78.358L78.953 15.26L80.682 17.5H81.802V12.81H80.752V15.071L80.801 16.016H80.724L80.08 15.029L78.4 12.81H77.28V17.5H78.33ZM84.5711 17.57C85.5861 17.57 86.0761 17.108 86.2371 16.492H86.2931V17.5H87.2661V15.022H84.6271V15.799H86.2161C86.1881 16.394 85.8591 16.562 84.7811 16.562C83.7521 16.562 83.3671 16.198 83.3671 15.155C83.3671 14.112 83.7661 13.748 84.8301 13.748C85.7331 13.748 86.0901 14.007 86.0901 14.553V14.609H87.2591V14.553C87.2591 13.426 86.3281 12.74 84.8581 12.74C83.2481 12.74 82.2541 13.692 82.2541 15.155C82.2541 16.618 83.1361 17.57 84.5711 17.57Z" fill="white"/>
</svg>
